<svg xmlns="http://www.w3.org/2000/svg" width="48" height="48" viewBox="0 0 48 48">
  <circle cx="24" cy="24" r="22" fill="#E1EFFF" stroke="#617F8B" stroke-width="2" />

  <path d="M24 44s16-8 16-20V10l-16-6-16 6v14c0 12 16 20 16 20z" fill="#3B5998" stroke="#EBC74C" stroke-width="3" />

  <path d="M8 10l16-6 16 6V12L24 7 8 12V10z" fill="#EBC74C" />

  <path d="M24 16v16M16 24h16" fill="none" stroke="#E1EFFF" stroke-width="3" stroke-linecap="round" />
  <path d="M24 16v16M16 24h16" fill="none" stroke="#617F8B" stroke-width="1.5" stroke-linecap="round" />

  <path d="M24 44s16-8 16-20V10l-16-6-16 6v14c0 12 16 20 16 20z" fill="none" stroke="#617F8B" stroke-width="2" />
</svg>