<svg xmlns="http://www.w3.org/2000/svg" width="48" height="48" viewBox="0 0 48 48">
  <circle cx="24" cy="24" r="22" fill="#F0EAE1" stroke="#8B7B61" stroke-width="2" />
  
  <path d="M12 11C12 9.34315 13.3431 8 15 8H24C30.6274 8 36 13.3726 36 20V30C36 34.4183 32.4183 38 28 38H15C13.3431 38 12 36.6569 12 35V11Z" fill="#C93D32" stroke="#4F1710" stroke-width="2" />
  
  <path d="M36 20C39.3137 20 42 22.6863 42 26V30C42 33.3137 39.3137 36 36 36V20Z" fill="#C93D32" stroke="#4F1710" stroke-width="2" />
  
  <rect x="10" y="38" width="24" height="8" rx="2" fill="#EBC74C" stroke="#8B7B61" stroke-width="2" />
  
  <path d="M24 8V38" stroke="#4F1710" stroke-width="1.5" stroke-linecap="round" />
  <path d="M18 12C18 10.3431 19.3431 9 21 9H23" stroke="#4F1710" stroke-width="1.5" stroke-linecap="round" />
</svg>