<svg xmlns="http://www.w3.org/2000/svg" viewBox="0 0 100 100" width="100" height="100">
  <ellipse cx="50" cy="85" rx="25" ry="6" fill="#000" opacity="0.2"/>

  <path d="M 40 10 L 60 10 L 60 30 L 80 50 Q 85 60 80 75 Q 75 90 50 90 Q 25 90 20 75 Q 15 60 20 50 L 40 30 Z" fill="#e6f7ff" stroke="#222" stroke-width="3"/>
  
  <path d="M 42 35 L 58 35 L 75 55 Q 80 65 75 75 Q 70 85 50 85 Q 30 85 25 75 Q 20 65 25 55 Z" fill="#ff3333"/>
  
  <circle cx="45" cy="70" r="4" fill="#ff9999"/>
  <circle cx="55" cy="60" r="3" fill="#ff9999"/>
  <circle cx="50" cy="45" r="2" fill="#ff9999"/>
  
  <rect x="38" y="5" width="24" height="10" fill="#cc9966" stroke="#222" stroke-width="2"/>
</svg>