<svg xmlns="http://www.w3.org/2000/svg" viewBox="0 0 70 70" width="70" height="70">
  <path d="M 10,0 L 60,0 L 60,10 L 70,10 L 70,60 L 60,60 L 60,70 L 10,70 L 10,60 L 0,60 L 0,10 L 10,10 Z" fill="#5dade2" opacity="0.8" />
  
  <polyline points="0,11 11,11 11,0" stroke="#2980b9" stroke-width="2" stroke-opacity="0.6" fill="none" />
  <polyline points="59,0 59,11 70,11" stroke="#2980b9" stroke-width="2" stroke-opacity="0.6" fill="none" />
  <polyline points="70,59 59,59 59,70" stroke="#2980b9" stroke-width="2" stroke-opacity="0.6" fill="none" />
  <polyline points="11,70 11,59 0,59" stroke="#2980b9" stroke-width="2" stroke-opacity="0.6" fill="none" />

  <rect x="25" y="25" width="20" height="20" fill="#ffffff" opacity="0.7" />
  
  <rect x="28" y="0" width="14" height="10" fill="#85c1e9" opacity="0.9" /> <rect x="28" y="60" width="14" height="10" fill="#85c1e9" opacity="0.9" /> <rect x="0" y="28" width="10" height="14" fill="#85c1e9" opacity="0.9" /> <rect x="60" y="28" width="10" height="14" fill="#85c1e9" opacity="0.9" /> </svg>