<svg xmlns="http://www.w3.org/2000/svg" viewBox="0 0 100 100" width="100" height="100">
  <g transform="rotate(-10, 50, 50) translate(0, 5)">
      <path d="M 35 60 L 65 60 L 68 85 L 32 85 Z" fill="#ff4d4d" stroke="#222" stroke-width="3"/>
      <path d="M 35 65 L 20 55" stroke="#222" stroke-width="3" stroke-linecap="round"/>
      <path d="M 65 65 L 80 75" stroke="#222" stroke-width="3" stroke-linecap="round"/>
      <circle cx="50" cy="40" r="28" fill="#ff6666" stroke="#222" stroke-width="3"/>
      <path d="M 35 35 L 45 45 M 45 35 L 35 45" stroke="#222" stroke-width="3" stroke-linecap="round"/>
      <path d="M 55 35 L 65 45 M 65 35 L 55 45" stroke="#222" stroke-width="3" stroke-linecap="round"/>
      <path d="M 42 52 Q 50 45 58 52" fill="none" stroke="#222" stroke-width="2"/>
  </g>

  <circle cx="50" cy="50" r="48" fill="#00bfff" opacity="0.4" stroke="#004488" stroke-width="3"/>
  <path d="M 30 25 A 30 30 0 0 1 70 25" fill="none" stroke="#fff" stroke-width="4" stroke-linecap="round" opacity="0.7"/>
  <circle cx="25" cy="35" r="5" fill="#fff" opacity="0.8"/>
</svg>
