<svg xmlns="http://www.w3.org/2000/svg" viewBox="0 0 100 100" width="100" height="100">
  <g transform="rotate(-5, 50, 50) translate(0, 5)">
      <path d="M 30 30 Q 50 20 70 30 L 75 65 Q 75 85 60 85 Q 50 85 45 70 Q 40 85 30 85 Q 15 85 15 65 Z" fill="#f2f2f2" stroke="#222" stroke-width="3" stroke-linejoin="round"/>
      <path d="M 35 45 L 45 45 M 40 45 L 40 55" stroke="#222" stroke-width="3" stroke-linecap="round"/>
      <path d="M 55 45 L 65 45 M 60 45 L 60 55" stroke="#222" stroke-width="3" stroke-linecap="round"/>
      <circle cx="35" cy="60" r="3" fill="#99ccff"/>
      <circle cx="65" cy="65" r="3" fill="#99ccff"/>
  </g>

  <circle cx="50" cy="50" r="48" fill="#00bfff" opacity="0.4" stroke="#004488" stroke-width="3"/>
  <path d="M 30 25 A 30 30 0 0 1 70 25" fill="none" stroke="#fff" stroke-width="4" stroke-linecap="round" opacity="0.7"/>
</svg>
